<?xml version="1.0" standalone="no"?><svg xmlns="http://www.w3.org/2000/svg" viewBox="0 0 1440 320"><path fill="#273036" fill-opacity="1" d="M0,224L24,197.3C48,171,96,117,144,117.3C192,117,240,171,288,186.7C336,203,384,181,432,176C480,171,528,181,576,176C624,171,672,149,720,160C768,171,816,213,864,218.7C912,224,960,192,1008,192C1056,192,1104,224,1152,218.7C1200,213,1248,171,1296,160C1344,149,1392,171,1416,181.3L1440,192L1440,320L1416,320C1392,320,1344,320,1296,320C1248,320,1200,320,1152,320C1104,320,1056,320,1008,320C960,320,912,320,864,320C816,320,768,320,720,320C672,320,624,320,576,320C528,320,480,320,432,320C384,320,336,320,288,320C240,320,192,320,144,320C96,320,48,320,24,320L0,320Z"></path></svg>